# xmcd
#
# Track frame offsets:
# 182
# 10427
# 26217
# 35345
# 50830
# 65077
# 81337
# 90545
# 97545
# 110495
# 125827
# 134435
# 150180
# 160420
# 174852
# 186332
# 195545
# 211667
# 222242
# 235665
#
# Disc length: 3342 seconds
#
#
# Revision: 3
# Processed by: cddbd v1.5.2PL0 Copyright (c) Steve Scherf et al.
# Submitted via: FreeRIP 2.943 
#
DISCID=0f0d0c14
DTITLE=Willie, Boxcar - American Songs - The very Best - American Songs - The Very Best Of Boxcar Willie
DYEAR=1998
DGENRE=Country
TTITLE0=King Of The Road
TTITLE1=Wabash Cannonball
TTITLE2=Don't Let The Stars Get In Your Eyes
TTITLE3=Boxcar Blues
TTITLE4=You Are My Sunshine
TTITLE5=Your Cheating Heart
TTITLE6=Hank And The Hobo
TTITLE7=I Saw The Light
TTITLE8=Peace In The Valley
TTITLE9=Mule Train
TTITLE10=Hey Good Lookin'
TTITLE11=Kaw-Liga
TTITLE12=Move It On Over
TTITLE13=London Leaves
TTITLE14=Rolling In My Sweet Baby's Arms
TTITLE15=Divorce Me C.O.D.
TTITLE16=Red River Valley
TTITLE17=Heaven
TTITLE18=San Antonio Rose
TTITLE19=Train Medley
EXTD=(c)1998 Proper/Retro\nupc 076119405623\nThe Gold Collection CD02\nJohnny Cahs and Borgar Willie
EXTT0=
EXTT1=
EXTT2=
EXTT3=
EXTT4=
EXTT5=
EXTT6=
EXTT7=
EXTT8=
EXTT9=
EXTT10=
EXTT11=
EXTT12=
EXTT13=
EXTT14=
EXTT15=
EXTT16=
EXTT17=
EXTT18=
EXTT19=
PLAYORDER=
